{
    "asset" : {
        "generator" : "Khronos glTF Blender I/O v3.2.43",
        "version" : "2.0"
    },
    "scene" : 0,
    "scenes" : [
        {
            "name" : "Scene",
            "nodes" : [
                0
            ]
        }
    ],
    "nodes" : [
        {
            "mesh" : 0,
            "name" : "Box001",
            "rotation" : [
                0.7071068286895752,
                0,
                0,
                0.7071068286895752
            ],
            "translation" : [
                33.370094299316406,
                35.21209716796875,
                40.05732727050781
            ]
        }
    ],
    "materials" : [
        {
            "doubleSided" : true,
            "name" : "wire_145028177",
            "pbrMetallicRoughness" : {
                "baseColorFactor" : [
                    0.800000011920929,
                    0.800000011920929,
                    0.800000011920929,
                    1
                ],
                "metallicFactor" : 0,
                "roughnessFactor" : 0.5
            }
        }
    ],
    "meshes" : [
        {
            "name" : "Box001",
            "primitives" : [
                {
                    "attributes" : {
                        "POSITION" : 0,
                        "NORMAL" : 1,
                        "TEXCOORD_0" : 2
                    },
                    "indices" : 3,
                    "material" : 0
                }
            ]
        }
    ],
    "accessors" : [
        {
            "bufferView" : 0,
            "componentType" : 5126,
            "count" : 4032,
            "max" : [
                51.86708068847656,
                46.022857666015625,
                35.6588134765625
            ],
            "min" : [
                -33.13652038574219,
                -38.9786376953125,
                -36.34117126464844
            ],
            "type" : "VEC3"
        },
        {
            "bufferView" : 1,
            "componentType" : 5126,
            "count" : 4032,
            "type" : "VEC3"
        },
        {
            "bufferView" : 2,
            "componentType" : 5126,
            "count" : 4032,
            "type" : "VEC2"
        },
        {
            "bufferView" : 3,
            "componentType" : 5123,
            "count" : 10200,
            "type" : "SCALAR"
        }
    ],
    "bufferViews" : [
        {
            "buffer" : 0,
            "byteLength" : 48384,
            "byteOffset" : 0
        },
        {
            "buffer" : 0,
            "byteLength" : 48384,
            "byteOffset" : 48384
        },
        {
            "buffer" : 0,
            "byteLength" : 32256,
            "byteOffset" : 96768
        },
        {
            "buffer" : 0,
            "byteLength" : 20400,
            "byteOffset" : 129024
        }
    ],
    "buffers" : [
        {
            "byteLength" : 149424,
            "uri" : "data:application/octet-stream;base64,"
        }
    ]
}
