{
    "asset" : {
        "generator" : "Khronos glTF Blender I/O v3.2.43",
        "version" : "2.0"
    },
    "scene" : 0,
    "scenes" : [
        {
            "name" : "Scene",
            "nodes" : [
                0
            ]
        }
    ],
    "nodes" : [
        {
            "mesh" : 0,
            "name" : "BLUM",
            "rotation" : [
                0.7071068286895752,
                0,
                0,
                0.7071067094802856
            ]
        }
    ],
    "materials" : [
        {
            "doubleSided" : true,
            "name" : "Steel_-_Satin.003",
            "pbrMetallicRoughness" : {
                "baseColorFactor" : [
                    0.6274510025978088,
                    0.6274510025978088,
                    0.6274510025978088,
                    1
                ],
                "roughnessFactor" : 0.5757359266281128
            }
        }
    ],
    "meshes" : [
        {
            "name" : "BLUM",
            "primitives" : [
                {
                    "attributes" : {
                        "POSITION" : 0,
                        "NORMAL" : 1,
                        "TEXCOORD_0" : 2
                    },
                    "indices" : 3,
                    "material" : 0
                }
            ]
        }
    ],
    "accessors" : [
        {
            "bufferView" : 0,
            "componentType" : 5126,
            "count" : 1047,
            "max" : [
                0.5,
                20,
                3.814697265625e-06
            ],
            "min" : [
                -0.5,
                -20,
                -10.000003814697266
            ],
            "type" : "VEC3"
        },
        {
            "bufferView" : 1,
            "componentType" : 5126,
            "count" : 1047,
            "type" : "VEC3"
        },
        {
            "bufferView" : 2,
            "componentType" : 5126,
            "count" : 1047,
            "type" : "VEC2"
        },
        {
            "bufferView" : 3,
            "componentType" : 5123,
            "count" : 3078,
            "type" : "SCALAR"
        }
    ],
    "bufferViews" : [
        {
            "buffer" : 0,
            "byteLength" : 12564,
            "byteOffset" : 0
        },
        {
            "buffer" : 0,
            "byteLength" : 12564,
            "byteOffset" : 12564
        },
        {
            "buffer" : 0,
            "byteLength" : 8376,
            "byteOffset" : 25128
        },
        {
            "buffer" : 0,
            "byteLength" : 6156,
            "byteOffset" : 33504
        }
    ],
    "buffers" : [
        {
            "byteLength" : 39660,
            "uri" : "data:application/octet-stream;base64,"
        }
    ]
}
