{
    "asset" : {
        "generator" : "Khronos glTF Blender I/O v3.2.43",
        "version" : "2.0"
    },
    "scene" : 0,
    "scenes" : [
        {
            "name" : "Scene",
            "nodes" : [
                0
            ]
        }
    ],
    "nodes" : [
        {
            "mesh" : 0,
            "name" : "Netzteil",
            "rotation" : [
                0.5000000596046448,
                -0.5,
                -0.5,
                0.4999999701976776
            ]
        }
    ],
    "materials" : [
        {
            "doubleSided" : true,
            "name" : "Vorgabe_Metall",
            "pbrMetallicRoughness" : {
                "baseColorFactor" : [
                    0,
                    0,
                    0,
                    1
                ],
                "metallicFactor" : 0
            }
        },
        {
            "doubleSided" : true,
            "name" : "Vorgabe_Kunststoff_matt",
            "pbrMetallicRoughness" : {
                "baseColorFactor" : [
                    1,
                    0.4666669964790344,
                    0,
                    1
                ],
                "metallicFactor" : 0
            }
        },
        {
            "doubleSided" : true,
            "name" : "Vorgabe_Kunststoff_matt_1",
            "pbrMetallicRoughness" : {
                "metallicFactor" : 0
            }
        },
        {
            "doubleSided" : true,
            "name" : "Vorgabe_Kunststoff_gl\u00e4nzend",
            "pbrMetallicRoughness" : {
                "baseColorFactor" : [
                    1,
                    0.4666669964790344,
                    0,
                    1
                ],
                "metallicFactor" : 0
            }
        },
        {
            "doubleSided" : true,
            "name" : "Vorgabe_Kunststoff_gl\u00e4nzend_1",
            "pbrMetallicRoughness" : {
                "baseColorFactor" : [
                    0.9607840180397034,
                    0.9607840180397034,
                    0.9607840180397034,
                    1
                ],
                "metallicFactor" : 0
            }
        }
    ],
    "meshes" : [
        {
            "name" : "Netzteil",
            "primitives" : [
                {
                    "attributes" : {
                        "POSITION" : 0,
                        "NORMAL" : 1,
                        "TEXCOORD_0" : 2
                    },
                    "indices" : 3,
                    "material" : 0
                },
                {
                    "attributes" : {
                        "POSITION" : 4,
                        "NORMAL" : 5,
                        "TEXCOORD_0" : 6
                    },
                    "indices" : 7,
                    "material" : 1
                },
                {
                    "attributes" : {
                        "POSITION" : 8,
                        "NORMAL" : 9,
                        "TEXCOORD_0" : 10
                    },
                    "indices" : 11,
                    "material" : 2
                },
                {
                    "attributes" : {
                        "POSITION" : 12,
                        "NORMAL" : 13,
                        "TEXCOORD_0" : 14
                    },
                    "indices" : 15,
                    "material" : 3
                },
                {
                    "attributes" : {
                        "POSITION" : 16,
                        "NORMAL" : 17,
                        "TEXCOORD_0" : 18
                    },
                    "indices" : 19,
                    "material" : 4
                }
            ]
        }
    ],
    "accessors" : [
        {
            "bufferView" : 0,
            "componentType" : 5126,
            "count" : 36200,
            "max" : [
                127.4000015258789,
                16.604806900024414,
                -13.000662803649902
            ],
            "min" : [
                2,
                9.994999885559082,
                -32.49909973144531
            ],
            "type" : "VEC3"
        },
        {
            "bufferView" : 1,
            "componentType" : 5126,
            "count" : 36200,
            "type" : "VEC3"
        },
        {
            "bufferView" : 2,
            "componentType" : 5126,
            "count" : 36200,
            "type" : "VEC2"
        },
        {
            "bufferView" : 3,
            "componentType" : 5123,
            "count" : 145824,
            "type" : "SCALAR"
        },
        {
            "bufferView" : 4,
            "componentType" : 5126,
            "count" : 1124,
            "max" : [
                129.39999389648438,
                17,
                -10.100000381469727
            ],
            "min" : [
                0,
                2.5999999046325684,
                -35.400001525878906
            ],
            "type" : "VEC3"
        },
        {
            "bufferView" : 5,
            "componentType" : 5126,
            "count" : 1124,
            "type" : "VEC3"
        },
        {
            "bufferView" : 6,
            "componentType" : 5126,
            "count" : 1124,
            "type" : "VEC2"
        },
        {
            "bufferView" : 7,
            "componentType" : 5123,
            "count" : 3474,
            "type" : "SCALAR"
        },
        {
            "bufferView" : 8,
            "componentType" : 5126,
            "count" : 3623,
            "max" : [
                129.39999389648438,
                17,
                0
            ],
            "min" : [
                0,
                0,
                -45.5
            ],
            "type" : "VEC3"
        },
        {
            "bufferView" : 9,
            "componentType" : 5126,
            "count" : 3623,
            "type" : "VEC3"
        },
        {
            "bufferView" : 10,
            "componentType" : 5126,
            "count" : 3623,
            "type" : "VEC2"
        },
        {
            "bufferView" : 11,
            "componentType" : 5123,
            "count" : 12522,
            "type" : "SCALAR"
        },
        {
            "bufferView" : 12,
            "componentType" : 5126,
            "count" : 116,
            "max" : [
                117.4000015258789,
                17,
                -13.75
            ],
            "min" : [
                12,
                16.799999237060547,
                -31.75
            ],
            "type" : "VEC3"
        },
        {
            "bufferView" : 13,
            "componentType" : 5126,
            "count" : 116,
            "type" : "VEC3"
        },
        {
            "bufferView" : 14,
            "componentType" : 5126,
            "count" : 116,
            "type" : "VEC2"
        },
        {
            "bufferView" : 15,
            "componentType" : 5123,
            "count" : 174,
            "type" : "SCALAR"
        },
        {
            "bufferView" : 16,
            "componentType" : 5126,
            "count" : 40,
            "max" : [
                110.14047241210938,
                16.899999618530273,
                -1
            ],
            "min" : [
                19.259525299072266,
                16.899999618530273,
                -44.5
            ],
            "type" : "VEC3"
        },
        {
            "bufferView" : 17,
            "componentType" : 5126,
            "count" : 40,
            "type" : "VEC3"
        },
        {
            "bufferView" : 18,
            "componentType" : 5126,
            "count" : 40,
            "type" : "VEC2"
        },
        {
            "bufferView" : 19,
            "componentType" : 5123,
            "count" : 108,
            "type" : "SCALAR"
        }
    ],
    "bufferViews" : [
        {
            "buffer" : 0,
            "byteLength" : 434400,
            "byteOffset" : 0
        },
        {
            "buffer" : 0,
            "byteLength" : 434400,
            "byteOffset" : 434400
        },
        {
            "buffer" : 0,
            "byteLength" : 289600,
            "byteOffset" : 868800
        },
        {
            "buffer" : 0,
            "byteLength" : 291648,
            "byteOffset" : 1158400
        },
        {
            "buffer" : 0,
            "byteLength" : 13488,
            "byteOffset" : 1450048
        },
        {
            "buffer" : 0,
            "byteLength" : 13488,
            "byteOffset" : 1463536
        },
        {
            "buffer" : 0,
            "byteLength" : 8992,
            "byteOffset" : 1477024
        },
        {
            "buffer" : 0,
            "byteLength" : 6948,
            "byteOffset" : 1486016
        },
        {
            "buffer" : 0,
            "byteLength" : 43476,
            "byteOffset" : 1492964
        },
        {
            "buffer" : 0,
            "byteLength" : 43476,
            "byteOffset" : 1536440
        },
        {
            "buffer" : 0,
            "byteLength" : 28984,
            "byteOffset" : 1579916
        },
        {
            "buffer" : 0,
            "byteLength" : 25044,
            "byteOffset" : 1608900
        },
        {
            "buffer" : 0,
            "byteLength" : 1392,
            "byteOffset" : 1633944
        },
        {
            "buffer" : 0,
            "byteLength" : 1392,
            "byteOffset" : 1635336
        },
        {
            "buffer" : 0,
            "byteLength" : 928,
            "byteOffset" : 1636728
        },
        {
            "buffer" : 0,
            "byteLength" : 348,
            "byteOffset" : 1637656
        },
        {
            "buffer" : 0,
            "byteLength" : 480,
            "byteOffset" : 1638004
        },
        {
            "buffer" : 0,
            "byteLength" : 480,
            "byteOffset" : 1638484
        },
        {
            "buffer" : 0,
            "byteLength" : 320,
            "byteOffset" : 1638964
        },
        {
            "buffer" : 0,
            "byteLength" : 216,
            "byteOffset" : 1639284
        }
    ],
    "buffers" : [
        {
            "byteLength" : 1639500,
            "uri" : "data:application/octet-stream;base64,"
        }
    ]
}
